<svg width="11" height="19" viewBox="0 0 11 19" fill="none" xmlns="http://www.w3.org/2000/svg">
<path d="M5.53126 4.71486L8.91438 7.88806C9.16597 8.12404 9.57016 8.12049 9.81716 7.88012C10.0642 7.63975 10.0604 7.2536 9.80885 7.01762L5.9785 3.42493C5.73017 3.19201 5.33234 3.19201 5.08402 3.42493L1.25366 7.01762C1.00207 7.2536 0.99835 7.63975 1.24535 7.88012C1.49236 8.12048 1.89655 8.12404 2.14814 7.88806L5.53126 4.71486Z" fill="#D53E76"/>
<path d="M5.46874 14.2851L2.08562 11.1119C1.83403 10.876 1.42984 10.8795 1.18284 11.1199C0.935836 11.3602 0.939556 11.7464 1.19115 11.9824L5.0215 15.5751C5.26983 15.808 5.66766 15.808 5.91598 15.5751L9.74634 11.9824C9.99793 11.7464 10.0016 11.3602 9.75465 11.1199C9.50764 10.8795 9.10345 10.876 8.85186 11.1119L5.46874 14.2851Z" fill="#D53E76"/>
</svg>
