<svg width="23" height="24" viewBox="0 0 23 24" fill="none" xmlns="http://www.w3.org/2000/svg">
<path d="M11.5088 23.0977C10.2549 23.0977 9.05664 22.9014 7.91406 22.5088C6.77734 22.1221 5.73145 21.5771 4.77637 20.874C3.82129 20.1709 2.99219 19.3418 2.28906 18.3867C1.58594 17.4316 1.03809 16.3828 0.645508 15.2402C0.258789 14.0977 0.0654297 12.9023 0.0654297 11.6543C0.0654297 10.4004 0.258789 9.20508 0.645508 8.06836C1.03223 6.92578 1.57715 5.87695 2.28027 4.92188C2.98926 3.9668 3.81836 3.1377 4.76758 2.43457C5.72266 1.72559 6.76855 1.17773 7.90527 0.791016C9.04785 0.398437 10.2461 0.202148 11.5 0.202148C12.7539 0.202148 13.9521 0.398437 15.0947 0.791016C16.2373 1.17773 17.2861 1.72559 18.2412 2.43457C19.1963 3.1377 20.0254 3.9668 20.7285 4.92188C21.4375 5.87695 21.9854 6.92578 22.3721 8.06836C22.7646 9.20508 22.9609 10.4004 22.9609 11.6543C22.9609 12.9023 22.7646 14.0977 22.3721 15.2402C21.9854 16.3828 21.4375 17.4316 20.7285 18.3867C20.0254 19.3418 19.1963 20.1709 18.2412 20.874C17.2861 21.5771 16.2373 22.1221 15.0947 22.5088C13.958 22.9014 12.7627 23.0977 11.5088 23.0977ZM11.5088 21.4629C12.5986 21.4629 13.6328 21.2959 14.6113 20.9619C15.5957 20.6338 16.4951 20.1709 17.3096 19.5732C18.1299 18.9756 18.8389 18.2695 19.4365 17.4551C20.0342 16.6348 20.4971 15.7354 20.8252 14.7568C21.1533 13.7725 21.3174 12.7383 21.3174 11.6543C21.3174 10.5645 21.1533 9.53027 20.8252 8.55176C20.4971 7.56738 20.0312 6.66797 19.4277 5.85352C18.8301 5.0332 18.1211 4.32422 17.3008 3.72656C16.4863 3.12891 15.5869 2.66602 14.6025 2.33789C13.624 2.00977 12.5898 1.8457 11.5 1.8457C10.416 1.8457 9.38184 2.00977 8.39746 2.33789C7.41895 2.66602 6.52246 3.12891 5.70801 3.72656C4.89355 4.32422 4.1875 5.0332 3.58984 5.85352C2.99219 6.66797 2.5293 7.56738 2.20117 8.55176C1.87305 9.53027 1.70898 10.5645 1.70898 11.6543C1.70898 12.7383 1.87305 13.7725 2.20117 14.7568C2.5293 15.7354 2.99219 16.6348 3.58984 17.4551C4.19336 18.2695 4.90234 18.9756 5.7168 19.5732C6.53125 20.1709 7.42773 20.6338 8.40625 20.9619C9.39062 21.2959 10.4248 21.4629 11.5088 21.4629ZM6.25293 13.21C5.81934 13.21 5.44727 13.0576 5.13672 12.7529C4.83203 12.4482 4.67969 12.0791 4.67969 11.6455C4.67969 11.2119 4.83203 10.8428 5.13672 10.5381C5.44727 10.2275 5.81934 10.0723 6.25293 10.0723C6.68066 10.0723 7.04688 10.2275 7.35156 10.5381C7.66211 10.8428 7.81738 11.2119 7.81738 11.6455C7.81738 12.0791 7.66211 12.4482 7.35156 12.7529C7.04688 13.0576 6.68066 13.21 6.25293 13.21ZM11.5 13.21C11.0664 13.21 10.6973 13.0576 10.3926 12.7529C10.0879 12.4482 9.93555 12.0791 9.93555 11.6455C9.93555 11.2119 10.0879 10.8428 10.3926 10.5381C10.6973 10.2275 11.0664 10.0723 11.5 10.0723C11.9336 10.0723 12.3027 10.2275 12.6074 10.5381C12.918 10.8428 13.0732 11.2119 13.0732 11.6455C13.0732 12.0791 12.918 12.4482 12.6074 12.7529C12.3027 13.0576 11.9336 13.21 11.5 13.21ZM16.7559 13.21C16.3223 13.21 15.9502 13.0576 15.6396 12.7529C15.335 12.4482 15.1826 12.0791 15.1826 11.6455C15.1826 11.2119 15.335 10.8428 15.6396 10.5381C15.9502 10.2275 16.3223 10.0723 16.7559 10.0723C17.1895 10.0723 17.5586 10.2275 17.8633 10.5381C18.168 10.8428 18.3203 11.2119 18.3203 11.6455C18.3203 12.0791 18.168 12.4482 17.8633 12.7529C17.5586 13.0576 17.1895 13.21 16.7559 13.21Z" fill="#1A4265"/>
</svg>
