<svg width="24" height="24" viewBox="0 0 24 24" fill="none" xmlns="http://www.w3.org/2000/svg">
<path fill-rule="evenodd" clip-rule="evenodd" d="M8.46959 7.63526L10.9436 2.80683C11.229 2.2498 11.9191 2.02602 12.4849 2.30699C12.707 2.4173 12.8867 2.59569 12.9969 2.81529L15.3334 7.47175C15.5242 7.85214 15.8974 8.11186 16.3253 8.16216L21.218 8.73737C21.8822 8.81546 22.3564 9.40884 22.277 10.0627C22.2444 10.332 22.1194 10.5823 21.9228 10.7723L18.0556 14.509C17.8994 14.6599 17.8238 14.8739 17.851 15.0876L18.4937 20.1324C18.5857 20.8546 18.0656 21.5135 17.332 21.604C17.0539 21.6384 16.772 21.5859 16.5258 21.4542L12.4401 19.2669C12.1445 19.1086 11.7886 19.1041 11.4889 19.2547L7.25578 21.3827C6.66001 21.6821 5.93044 21.4495 5.62623 20.863C5.51241 20.6435 5.47044 20.3947 5.50609 20.1509L5.84441 17.8363C6.00989 16.7043 6.72458 15.7223 7.76023 15.204L12.4618 12.8512C12.5874 12.7884 12.6374 12.6372 12.5736 12.5137C12.5242 12.4179 12.4183 12.3637 12.3103 12.3789L6.56023 13.186C5.68123 13.3093 4.78979 13.0662 4.10063 12.5151L2.18541 10.9835C1.63886 10.5464 1.55571 9.7559 1.99968 9.21786C2.20615 8.96765 2.50248 8.80523 2.82728 8.76427L7.73733 8.14503C8.05225 8.10532 8.3266 7.91432 8.46959 7.63526Z" fill="#1A4265"/>
</svg>
