<svg width="19" height="14" viewBox="0 0 19 14" fill="none" xmlns="http://www.w3.org/2000/svg">
<path d="M0.375 4.25C0.375 2.84987 0.375 2.1498 0.647484 1.61502C0.887167 1.14462 1.26962 0.762167 1.74002 0.522484C2.2748 0.25 2.97487 0.25 4.375 0.25H13.25C14.6501 0.25 15.3502 0.25 15.885 0.522484C16.3554 0.762167 16.7378 1.14462 16.9775 1.61502C17.1862 2.02462 17.2351 2.53119 17.2465 3.375H12.875C11.7101 3.375 11.1277 3.375 10.6683 3.5653C10.0557 3.81904 9.56904 4.30572 9.3153 4.91829C9.125 5.37772 9.125 5.96015 9.125 7.125C9.125 8.28985 9.125 8.87228 9.3153 9.33171C9.56904 9.94428 10.0557 10.431 10.6683 10.6847C11.1277 10.875 11.7101 10.875 12.875 10.875H17.2465C17.2351 11.7188 17.1862 12.2254 16.9775 12.635C16.7378 13.1054 16.3554 13.4878 15.885 13.7275C15.3502 14 14.6501 14 13.25 14H4.375C2.97487 14 2.2748 14 1.74002 13.7275C1.26962 13.4878 0.887167 13.1054 0.647484 12.635C0.375 12.1002 0.375 11.4001 0.375 10V4.25Z" fill="white"/>
<path fill-rule="evenodd" clip-rule="evenodd" d="M10.2188 6.96875C10.2188 6.09367 10.2188 5.65613 10.3891 5.32189C10.5389 5.02789 10.7779 4.78885 11.0719 4.63905C11.4061 4.46875 11.8437 4.46875 12.7188 4.46875H15.5312C16.4063 4.46875 16.8439 4.46875 17.1781 4.63905C17.4721 4.78885 17.7111 5.02789 17.8609 5.32189C18.0312 5.65613 18.0312 6.09367 18.0312 6.96875V7.28125C18.0312 8.15633 18.0312 8.59387 17.8609 8.92811C17.7111 9.22211 17.4721 9.46115 17.1781 9.61095C16.8439 9.78125 16.4063 9.78125 15.5312 9.78125H12.7188C11.8437 9.78125 11.4061 9.78125 11.0719 9.61095C10.7779 9.46115 10.5389 9.22211 10.3891 8.92811C10.2188 8.59387 10.2188 8.15633 10.2188 7.28125V6.96875ZM14.125 7.125C14.125 7.81536 13.5654 8.375 12.875 8.375C12.1846 8.375 11.625 7.81536 11.625 7.125C11.625 6.43464 12.1846 5.875 12.875 5.875C13.5654 5.875 14.125 6.43464 14.125 7.125Z" fill="white"/>
</svg>
