<svg width="24" height="24" viewBox="0 0 24 24" fill="none" xmlns="http://www.w3.org/2000/svg">
<path d="M11.5486 22C10.0312 22 8.70588 21.738 7.57263 21.2141C6.44578 20.6901 5.56863 19.9565 4.94118 19.0134C4.31373 18.0703 4 16.9669 4 15.7032C4 15.0374 4.05442 14.4457 4.16327 13.9279C4.27851 13.4101 4.41617 12.9447 4.57623 12.5317C4.7427 12.1125 4.90916 11.718 5.07563 11.3481C5.2421 10.9783 5.37975 10.6115 5.4886 10.2478C5.59744 9.88411 5.65186 9.49576 5.65186 9.08276C5.65186 8.87933 5.63906 8.65742 5.61345 8.41701C5.59424 8.17044 5.58463 7.9886 5.58463 7.87147C5.58463 7.66805 5.64546 7.50162 5.76711 7.37217C5.88876 7.24272 6.04882 7.17799 6.2473 7.17799C6.58663 7.17799 6.92917 7.27662 7.27491 7.47388C7.62705 7.67114 7.94078 7.94545 8.21609 8.29681C8.4978 8.64201 8.71229 9.04269 8.85954 9.49884L8.37935 9.59131C8.53301 9.33241 8.62905 9.10433 8.66747 8.90707C8.71229 8.70365 8.73469 8.49715 8.73469 8.28756C8.72829 7.6773 8.60984 7.09786 8.37935 6.54924C8.15526 6.00062 7.86715 5.47973 7.51501 4.98659C7.16927 4.49345 6.80752 4.02805 6.42977 3.59038C6.32733 3.47943 6.2505 3.36539 6.19928 3.24827C6.14806 3.13115 6.12245 3.01402 6.12245 2.8969C6.12245 2.60102 6.2537 2.3791 6.51621 2.23116C6.78511 2.07705 7.14686 2 7.60144 2C8.44658 2 9.33653 2.09863 10.2713 2.29589C11.2125 2.48698 12.1441 2.78903 13.066 3.20203C13.9944 3.60888 14.8748 4.12976 15.7071 4.76468C16.5394 5.39344 17.2757 6.14239 17.916 7.01156C18.5626 7.87456 19.0716 8.86392 19.443 9.97966C19.8143 11.0954 20 12.3437 20 13.7245C20 14.9635 19.7983 16.0915 19.395 17.1086C18.998 18.1258 18.425 18.998 17.6759 19.7254C16.9268 20.4528 16.0336 21.0137 14.9964 21.4082C13.9656 21.8027 12.8163 22 11.5486 22ZM11.7695 19.4018C12.5314 19.4018 13.1621 19.2415 13.6615 18.9209C14.1673 18.6004 14.545 18.1781 14.7947 17.6542C15.0444 17.1302 15.1693 16.5631 15.1693 15.9528C15.1693 15.3487 15.0476 14.7416 14.8043 14.1313C14.5674 13.521 14.2121 12.957 13.7383 12.4392C13.2645 11.9214 12.6755 11.5022 11.9712 11.1817C11.9264 11.1632 11.8912 11.1663 11.8655 11.1909C11.8399 11.2094 11.8303 11.2403 11.8367 11.2834C11.92 12.0416 11.9072 12.7474 11.7983 13.4008C11.6895 14.0481 11.507 14.5381 11.2509 14.871C11.1293 14.6059 10.9916 14.3594 10.8379 14.1313C10.6907 13.8971 10.505 13.6844 10.2809 13.4933C10.2489 13.4686 10.2169 13.4625 10.1849 13.4748C10.1593 13.481 10.1433 13.5056 10.1369 13.5488C10.0984 13.8138 10.0088 14.0573 9.86795 14.2792C9.72709 14.495 9.57343 14.7231 9.40696 14.9635C9.2405 15.1977 9.09324 15.4628 8.96519 15.7587C8.84354 16.0484 8.78271 16.3967 8.78271 16.8035C8.78271 17.5802 9.05482 18.209 9.59904 18.6898C10.1497 19.1644 10.8731 19.4018 11.7695 19.4018Z" fill="#999999"/>
</svg>
