<svg width="20" height="20" viewBox="0 0 20 20" fill="none" xmlns="http://www.w3.org/2000/svg">
<path d="M0 8C0 5.19974 0 3.79961 0.544967 2.73005C1.02433 1.78924 1.78924 1.02433 2.73005 0.544967C3.79961 0 5.19974 0 8 0H9.2V5.73121C9.02815 5.44141 8.83082 5.17123 8.60084 4.94141C8.00949 4.35045 7.17389 3.82159 6.25934 3.62808C5.31292 3.42783 4.25159 3.58929 3.399 4.44177C2.96075 4.87997 2.71519 5.40158 2.66161 5.96206C2.6095 6.50714 2.74392 7.02969 2.96016 7.48872C3.26074 8.1268 3.75199 8.71411 4.30839 9.2H0V8Z" fill="white"/>
<path d="M0 10.8V12C0 14.8003 0 16.2004 0.544967 17.27C1.02433 18.2108 1.78924 18.9757 2.73005 19.455C3.79961 20 5.19974 20 8 20H9.2V12.9535C7.8447 14.7187 6.17593 15.9316 4.1667 16.3335C3.70637 16.4256 3.25857 16.127 3.16651 15.6667C3.07444 15.2064 3.37298 14.7586 3.8333 14.6665C5.6694 14.2993 7.27762 12.9979 8.6084 10.8096C8.57924 10.8065 8.54979 10.8033 8.52008 10.8H0Z" fill="white"/>
<path d="M11.4799 10.8C11.4502 10.8033 11.4208 10.8065 11.3916 10.8096C12.7224 12.9979 14.3306 14.2993 16.1667 14.6665C16.627 14.7586 16.9256 15.2064 16.8335 15.6667C16.7414 16.127 16.2936 16.4256 15.8333 16.3335C13.8241 15.9316 12.1553 14.7187 10.8 12.9535V20H12C14.8003 20 16.2004 20 17.27 19.455C18.2108 18.9757 18.9757 18.2108 19.455 17.27C20 16.2004 20 14.8003 20 12V10.8H11.4799Z" fill="white"/>
<path d="M20 9.2V8C20 5.19974 20 3.79961 19.455 2.73005C18.9757 1.78924 18.2108 1.02433 17.27 0.544967C16.2004 0 14.8003 0 12 0H10.8V5.73121C10.9719 5.44141 11.1692 5.17123 11.3992 4.94141C11.9905 4.35045 12.8261 3.82159 13.7407 3.62808C14.6871 3.42783 15.7484 3.58929 16.601 4.44177C17.0393 4.87997 17.2848 5.40158 17.3384 5.96206C17.3905 6.50714 17.2561 7.02969 17.0398 7.48872C16.7393 8.1268 16.248 8.71411 15.6916 9.2H20Z" fill="white"/>
<path d="M14.0926 5.29126C13.5627 5.40337 13.0095 5.73552 12.6008 6.14389C12.2542 6.49032 11.9671 7.11582 11.6694 7.96445C11.601 8.15938 11.5312 8.3693 11.4593 8.58568C11.4021 8.75812 11.3433 8.93513 11.2828 9.11144C11.3776 9.10096 11.4753 9.08914 11.5752 9.07583C12.4954 8.95318 13.4516 8.72082 14.0285 8.33622C14.6943 7.89235 15.2471 7.30515 15.5019 6.76425C15.626 6.5009 15.6617 6.28719 15.6461 6.12383C15.632 5.97586 15.5719 5.81684 15.399 5.64393C15.0292 5.2742 14.5906 5.18589 14.0926 5.29126Z" fill="white"/>
<path d="M7.39916 6.14389C6.99051 5.73552 6.4373 5.40337 5.90744 5.29126C5.40945 5.18589 4.97078 5.2742 4.601 5.64393C4.42807 5.81684 4.36804 5.97586 4.35389 6.12383C4.33828 6.28719 4.37401 6.5009 4.49806 6.76425C4.75287 7.30515 5.30569 7.89235 5.9715 8.33622C6.5484 8.72082 7.50463 8.95318 8.4248 9.07583C8.52469 9.08914 8.62241 9.10096 8.71716 9.11144C8.65674 8.93513 8.59809 8.75859 8.54081 8.58615C8.46892 8.36977 8.39903 8.15938 8.33064 7.96445C8.03291 7.11582 7.74582 6.49032 7.39916 6.14389Z" fill="white"/>
</svg>
