<svg width="24" height="24" viewBox="0 0 24 24" fill="none" xmlns="http://www.w3.org/2000/svg">
<path fill-rule="evenodd" clip-rule="evenodd" d="M22.1645 8.28837L20.4268 4.23368C20.1691 3.63248 20.0403 3.33188 19.8328 3.11121C19.6494 2.91619 19.4229 2.76683 19.1714 2.67509C18.8868 2.57129 18.5598 2.57129 17.9057 2.57129H6.09436C5.44027 2.57129 5.11322 2.57129 4.82867 2.67509C4.57717 2.76683 4.35065 2.91619 4.16726 3.11121C3.95976 3.33188 3.83093 3.63248 3.57327 4.23368L1.83555 8.28837H22.1645ZM3.42858 13.3032C3.89619 13.4747 4.40142 13.5684 4.92857 13.5684C5.79691 13.5684 6.60654 13.3135 7.28572 12.8756C7.9649 13.3135 8.77452 13.5684 9.64286 13.5684C10.5112 13.5684 11.3208 13.3135 12 12.8756C12.6792 13.3135 13.4888 13.5684 14.3571 13.5684C15.2255 13.5684 16.0351 13.3135 16.7143 12.8756C17.3935 13.3135 18.2031 13.5684 19.0714 13.5684C19.5986 13.5684 20.1038 13.4747 20.5714 13.3031V18.6857C20.5714 19.6458 20.5714 20.1258 20.3846 20.4926C20.2202 20.8151 19.958 21.0774 19.6354 21.2417C19.2687 21.4286 18.7887 21.4286 17.8286 21.4286H6.17144C5.21135 21.4286 4.7313 21.4286 4.3646 21.2417C4.04204 21.0774 3.77978 20.8151 3.61543 20.4926C3.42858 20.1258 3.42858 19.6458 3.42858 18.6857V13.3032ZM5.14283 16.7999C5.14283 16.3198 5.14283 16.0798 5.23625 15.8964C5.31843 15.7352 5.44956 15.604 5.61084 15.5219C5.79419 15.4284 6.03421 15.4284 6.51426 15.4284H9.7714C10.2514 15.4284 10.4915 15.4284 10.6748 15.5219C10.8361 15.604 10.9672 15.7352 11.0494 15.8964C11.1428 16.0798 11.1428 16.3198 11.1428 16.7999V18.3427C11.1428 18.8228 11.1428 19.0628 11.0494 19.2461C10.9672 19.4074 10.8361 19.5385 10.6748 19.6207C10.4915 19.7141 10.2514 19.7141 9.7714 19.7141H6.51426C6.03421 19.7141 5.79419 19.7141 5.61084 19.6207C5.44956 19.5385 5.31843 19.4074 5.23625 19.2461C5.14283 19.0628 5.14283 18.8228 5.14283 18.3427V16.7999ZM4.92855 12.4284C3.22536 12.4284 1.83156 11.1037 1.72129 9.42843H22.2787C22.1684 11.1037 20.7746 12.4284 19.0714 12.4284C18.1401 12.4284 17.3013 12.0324 16.7143 11.3995C16.1272 12.0324 15.2884 12.4284 14.3571 12.4284C13.4258 12.4284 12.587 12.0324 12 11.3995C11.4129 12.0324 10.5741 12.4284 9.64284 12.4284C8.71153 12.4284 7.87273 12.0324 7.2857 11.3995C6.69866 12.0324 5.85986 12.4284 4.92855 12.4284Z" fill="#999999"/>
</svg>
