<svg width="29" height="29" viewBox="0 0 29 29" fill="none" xmlns="http://www.w3.org/2000/svg">
<path d="M21.1821 9.38877C21.0975 9.37669 21.0129 9.37669 20.9283 9.38877C19.0554 9.32835 17.5692 7.79377 17.5692 5.90877C17.5692 3.98752 19.1279 2.41669 21.0612 2.41669C22.9825 2.41669 24.5533 3.97544 24.5533 5.90877C24.5412 7.79377 23.055 9.32835 21.1821 9.38877Z" fill="black" fill-opacity="0.5"/>
<path d="M25.1213 17.7625C23.7679 18.6687 21.8708 19.0071 20.1188 18.7775C20.5779 17.7867 20.8196 16.6871 20.8317 15.5271C20.8317 14.3187 20.5658 13.1708 20.0583 12.1679C21.8467 11.9262 23.7438 12.2646 25.1092 13.1708C27.0184 14.4275 27.0184 16.4937 25.1213 17.7625Z" fill="black" fill-opacity="0.5"/>
<path d="M7.78165 9.38877C7.86624 9.37669 7.95082 9.37669 8.0354 9.38877C9.90832 9.32835 11.3946 7.79377 11.3946 5.90877C11.3946 3.97544 9.83582 2.41669 7.90249 2.41669C5.98124 2.41669 4.42249 3.97544 4.42249 5.90877C4.42249 7.79377 5.90874 9.32835 7.78165 9.38877Z" fill="black" fill-opacity="0.5"/>
<path d="M7.91457 15.5271C7.91457 16.6991 8.16832 17.8108 8.62749 18.8137C6.92374 18.995 5.14749 18.6325 3.84249 17.7746C1.93332 16.5058 1.93332 14.4396 3.84249 13.1708C5.13541 12.3008 6.95999 11.9504 8.67582 12.1437C8.18041 13.1587 7.91457 14.3066 7.91457 15.5271Z" fill="black" fill-opacity="0.5"/>
<path d="M14.645 19.1762C14.5483 19.1642 14.4396 19.1642 14.3308 19.1762C12.1075 19.1037 10.3312 17.2792 10.3312 15.0317C10.3433 12.7358 12.1921 10.875 14.5 10.875C16.7958 10.875 18.6567 12.7358 18.6567 15.0317C18.6446 17.2792 16.8804 19.1037 14.645 19.1762Z" fill="black" fill-opacity="0.5"/>
<path d="M10.7179 21.6775C8.89334 22.8979 8.89334 24.9038 10.7179 26.1121C12.7963 27.5017 16.2038 27.5017 18.2821 26.1121C20.1067 24.8917 20.1067 22.8858 18.2821 21.6775C16.2158 20.2879 12.8083 20.2879 10.7179 21.6775Z" fill="black" fill-opacity="0.5"/>
</svg>
