<svg width="34" height="34" viewBox="0 0 34 34" fill="none" xmlns="http://www.w3.org/2000/svg">
<path d="M29.9445 14.9166L28.0556 12.7221C27.6945 12.3055 27.4028 11.5277 27.4028 10.9721V8.61104C27.4028 7.13881 26.1945 5.93048 24.7223 5.93048H22.3611C21.8195 5.93048 21.0278 5.63881 20.6111 5.2777L18.4167 3.38881C17.4584 2.56937 15.8889 2.56937 14.9167 3.38881L12.7361 5.29159C12.3195 5.63881 11.5278 5.93048 10.9861 5.93048H8.58337C7.11115 5.93048 5.90281 7.13881 5.90281 8.61104V10.986C5.90281 11.5277 5.61115 12.3055 5.26393 12.7221L3.38893 14.9305C2.58337 15.8888 2.58337 17.4444 3.38893 18.4027L5.26393 20.611C5.61115 21.0277 5.90281 21.8055 5.90281 22.3471V24.7221C5.90281 26.1944 7.11115 27.4027 8.58337 27.4027H10.9861C11.5278 27.4027 12.3195 27.6944 12.7361 28.0555L14.9306 29.9444C15.8889 30.7638 17.4584 30.7638 18.4306 29.9444L20.625 28.0555C21.0417 27.6944 21.8195 27.4027 22.375 27.4027H24.7361C26.2084 27.4027 27.4167 26.1944 27.4167 24.7221V22.361C27.4167 21.8194 27.7084 21.0277 28.0695 20.611L29.9584 18.4166C30.7639 17.4583 30.7639 15.8749 29.9445 14.9166ZM23.1667 16.6666L21.5417 21.611C21.3334 22.4305 20.4584 23.0971 19.5695 23.0971H17C16.5556 23.0971 15.9306 22.9444 15.6528 22.6666L13.6111 21.0694C13.5695 21.9583 13.1667 22.3333 12.1806 22.3333H11.5139C10.4861 22.3333 10.0695 21.9305 10.0695 20.9583V14.3194C10.0695 13.3471 10.4861 12.9444 11.5139 12.9444H12.1945C13.2223 12.9444 13.6389 13.3471 13.6389 14.3194V14.8194L16.3334 10.8194C16.6111 10.3888 17.3195 10.0833 17.9167 10.3194C18.5695 10.5416 18.9861 11.2638 18.8473 11.9027L18.5139 14.0694C18.4861 14.2638 18.5278 14.4444 18.6528 14.5833C18.7639 14.7083 18.9306 14.7916 19.1111 14.7916H21.8195C22.3473 14.7916 22.7917 14.9999 23.0556 15.3749C23.2917 15.736 23.3334 16.1944 23.1667 16.6666Z" fill="black" fill-opacity="0.5"/>
</svg>
