<svg width="20" height="20" viewBox="0 0 20 20" fill="none" xmlns="http://www.w3.org/2000/svg">
<path d="M10 14.4583C10.7502 14.4583 11.3583 13.8502 11.3583 13.1C11.3583 12.3498 10.7502 11.7416 10 11.7416C9.24981 11.7416 8.64166 12.3498 8.64166 13.1C8.64166 13.8502 9.24981 14.4583 10 14.4583Z" fill="#A3A3A3"/>
<path d="M15.2334 7.94169V6.90002C15.2334 4.65002 14.6917 1.66669 10 1.66669C5.30835 1.66669 4.76669 4.65002 4.76669 6.90002V7.94169C2.43335 8.23335 1.66669 9.41669 1.66669 12.325V13.875C1.66669 17.2917 2.70835 18.3334 6.12502 18.3334H13.875C17.2917 18.3334 18.3334 17.2917 18.3334 13.875V12.325C18.3334 9.41669 17.5667 8.23335 15.2334 7.94169ZM10 15.6167C8.60835 15.6167 7.48335 14.4834 7.48335 13.1C7.48335 11.7084 8.61669 10.5834 10 10.5834C11.3834 10.5834 12.5167 11.7167 12.5167 13.1C12.5167 14.4917 11.3917 15.6167 10 15.6167ZM6.12502 7.86669C6.05835 7.86669 6.00002 7.86669 5.93335 7.86669V6.90002C5.93335 4.45835 6.62502 2.83335 10 2.83335C13.375 2.83335 14.0667 4.45835 14.0667 6.90002V7.87502C14 7.87502 13.9417 7.87502 13.875 7.87502H6.12502V7.86669Z" fill="#A3A3A3"/>
</svg>
